inDegrees=no
num_controls=7
num_derivatives=13
num_iterations=77
num_multipliers=7
num_parameters=0
num_slacks=7
num_states=26
objective=0.358666
objective_accelerations=0.042373
objective_balance=0.003448
objective_effort=0.032835
objective_height=0.273383
objective_ligament=0.006626
solver_duration=1111.543961
status=Solve_Succeeded
success=true
DataType=double
version=3
OpenSimVersion=4.5
endheader
time	/jointset/ground_pelvis/pelvis_tilt/value	/jointset/ground_pelvis/pelvis_tx/value	/jointset/ground_pelvis/pelvis_ty/value	/jointset/hip_l/hip_flexion_l/value	/jointset/hip_l/hip_adduction_l/value	/jointset/hip_l/hip_rotation_l/value	/jointset/back/lumbar_extension/value	/jointset/patellofemoral_l/patellar_flexion_l/value	/jointset/knee_l/knee_flexion_l/value	/jointset/knee_l/knee_adduction_l/value	/jointset/knee_l/knee_rotation_l/value	/jointset/ankle_l/ankle_angle_l/value	/jointset/subtalar_l/subtalar_angle_l/value	/jointset/ground_pelvis/pelvis_tilt/speed	/jointset/ground_pelvis/pelvis_tx/speed	/jointset/ground_pelvis/pelvis_ty/speed	/jointset/hip_l/hip_flexion_l/speed	/jointset/hip_l/hip_adduction_l/speed	/jointset/hip_l/hip_rotation_l/speed	/jointset/back/lumbar_extension/speed	/jointset/patellofemoral_l/patellar_flexion_l/speed	/jointset/knee_l/knee_flexion_l/speed	/jointset/knee_l/knee_adduction_l/speed	/jointset/knee_l/knee_rotation_l/speed	/jointset/ankle_l/ankle_angle_l/speed	/jointset/subtalar_l/subtalar_angle_l/speed	/forceset/tau_hip_flexion_l	/forceset/tau_hip_adduction_l	/forceset/tau_hip_rotation_l	/forceset/tau_knee_flexion_l	/forceset/tau_ankle_angle_l	/forceset/tau_subtalar_angle_l	/forceset/tau_lumbar_extension	lambda_cid13_p0	lambda_cid13_p1	lambda_cid13_p2	lambda_cid13_p3	lambda_cid13_p4	lambda_cid13_p5	lambda_cid14_p0	/jointset/ground_pelvis/pelvis_tilt/accel	/jointset/ground_pelvis/pelvis_tx/accel	/jointset/ground_pelvis/pelvis_ty/accel	/jointset/hip_l/hip_flexion_l/accel	/jointset/hip_l/hip_adduction_l/accel	/jointset/hip_l/hip_rotation_l/accel	/jointset/back/lumbar_extension/accel	/jointset/patellofemoral_l/patellar_flexion_l/accel	/jointset/knee_l/knee_flexion_l/accel	/jointset/knee_l/knee_adduction_l/accel	/jointset/knee_l/knee_rotation_l/accel	/jointset/ankle_l/ankle_angle_l/accel	/jointset/subtalar_l/subtalar_angle_l/accel	gamma_cid13_p0	gamma_cid13_p1	gamma_cid13_p2	gamma_cid13_p3	gamma_cid13_p4	gamma_cid13_p5	gamma_cid14_p0
0	-0.04210454826910005	0.07005507725998471	0.8960555824391803	0.1955287580552426	-0.3208966344931545	-0.5052952186789669	-0.1379045077516729	0.07015288079084846	0.07015288079084844	-0.1745316188933944	-0.1386694545752536	-0.06701059314715049	0.005260046236892402	0	0	0	0	0	0	0	0	0	0	0	0	0	0.1046057016524021	-0.07512621506765443	-0.0261264959550432	-0.1788556387349678	0.112666280923554	-0.02385030896071441	-0.06259863582392926	1.929315139758417	4.533560749940622	5.208576507688496	23.71089597522068	-480.8559586078991	-69.92564287545432	-40.48925467347306	-5.427580202366457	-3.448180755827007	-1.744651600573335	24.41710943795346	-3.534442206962894	7.828693214815624	-5.249635620284766	25.31856504822095	25.31856504822033	6.156750040226037	-2.182154479168923	8.241172086871142	0.5994445698005773	1.297704545951098e-07	2.111510663064192e-06	3.060268387103173e-07	1.706929463252182e-07	7.796415677312978e-07	4.15337580915901e-08	2.826788172133032e-07
0.01	-0.04235477839226122	0.06988742668902868	0.8959715414971088	0.1967022699675405	-0.3210696878731758	-0.5049053877502969	-0.1381784779256203	0.07138552222750558	0.07138552222750552	-0.174233042902714	-0.138767167951393	-0.06660754274886128	0.005289075895309333	-0.04957768717904829	-0.03311812703638378	-0.0167472572926836	0.2328471999884487	-0.03434957480470143	0.07703841100772027	-0.05418828278860657	0.2450467570255503	0.2450467570255469	0.05935358392932469	-0.01975966108936982	0.08037315419757451	0.005968490349280993	0.1008999245897198	-0.07841090253459031	-0.02631913602348902	-0.1812534556673774	0.1181415481722587	-0.02013731698757	-0.05826683716575343	3.800124460703305	2.802067238880448	5.246329620909853	19.702732760481	-482.9256906409892	-72.65099910017787	-40.51331624157033	-4.652713612599711	-3.181796465732137	-1.630467197060524	22.44015508116444	-3.346469529668131	7.502306355308256	-5.412561808015905	23.87544494807819	23.8754449480781	5.770818978908918	-1.90551333450755	7.899921890802435	0.6195624867128148	-4.561952915780175e-09	1.66838500064854e-06	4.558673052267591e-07	2.758775293600667e-07	-1.129831591114272e-07	-1.782468918262154e-07	2.207556052785758e-07
0.02	-0.04308675551459804	0.06940096129007124	0.8957218871014216	0.2001485798400977	-0.3215784878837328	-0.5037729944492381	-0.1389761583674273	0.07502417401808939	0.07502417401808939	-0.1733516997908158	-0.1390690062205634	-0.06540785384767596	0.005382592701063263	-0.09634939983512442	-0.0637629656002905	-0.03312269072315323	0.4545595920518521	-0.06714932610717743	0.1485124744777616	-0.1047420535719052	0.4812020707853453	0.4812020707853428	0.1165534242435787	-0.0408249786062012	0.1593277005792222	0.01289742946740018	0.09719414752703781	-0.08169559000152622	-0.02651177609193451	-0.1836512725997869	0.1236168154209635	-0.01642432501442554	-0.05393503850757734	5.859636756105963	1.051509717372651	5.271148370633206	15.30865477137243	-482.2042520120975	-74.90684760770128	-40.58345419653694	-4.866385297772023	-2.953523061331591	-1.670286828130539	22.1901478529444	-3.224477506517808	6.715823707279841	-4.522733219223171	23.54027639506986	23.54027639507013	5.726001317211893	-2.443285764661235	7.957450523685777	0.7915343235682161	-1.388943604266702e-07	1.225259338232887e-06	6.057077717432009e-07	3.810621123949151e-07	-1.005607885954152e-06	-3.980275417440209e-07	1.588323933438484e-07
0.03	-0.04427807395429555	0.06861816318851005	0.8953082763471778	0.2057671032376123	-0.3224077661446541	-0.5019506673837811	-0.1402581382577908	0.08098199932231168	0.08098199932231159	-0.1719096426196616	-0.1395851490712711	-0.06342826048009843	0.005548521270814555	-0.1417351722508713	-0.092599675896942	-0.04969932787522971	0.6678926465357835	-0.098482489161051	0.2156912261626215	-0.1510355354291849	0.708787222150411	0.7087872221504099	0.1713155645178394	-0.06189245718141111	0.2359982702345473	0.02020844186221167	0.090714512060746	-0.07706981005879056	-0.02538736573473498	-0.178220077247896	0.116963620284773	-0.01536917329173524	-0.04853423082626978	3.970891731662608	0.8850602696119704	5.34212301260775	15.78677796716017	-479.6126329162991	-73.97226613355832	-40.69479064577192	-4.347835052459869	-2.819121554170564	-1.666537049334341	20.71696968123945	-3.054440557650314	6.679606530560436	-4.589897308237454	22.13123780463575	22.13123780463581	5.270235871242204	-1.861792665314268	7.432989511186123	0.6886466131001454	-2.133682009756664e-07	1.250984489066798e-06	9.711002737597389e-07	4.505535105740819e-07	-1.362438576212409e-06	-7.204276193831103e-07	1.522253062336385e-07
